<svg width="71" height="71" viewBox="0 0 71 71" fill="none" xmlns="http://www.w3.org/2000/svg">
<path d="M67.8 43.7C67.8 31.9 53.3 22.3 35.4 22.3C17.5 22.3 3 31.9 3 43.7V45.8C3 57.6 17.5 67.2 35.4 67.2C53.3 67.2 67.8 57.6 67.8 45.8V43.7Z" fill="#EC2B6C"/>
<path d="M35.4 60.1C53.1836 60.1 67.6 51.6382 67.6 41.2C67.6 30.7618 53.1836 22.3 35.4 22.3C17.6164 22.3 3.2 30.7618 3.2 41.2C3.2 51.6382 17.6164 60.1 35.4 60.1Z" fill="#F95A97"/>
<path d="M35.4 56.5C53.294 56.5 67.8 46.9189 67.8 35.1C67.8 23.2811 53.294 13.7 35.4 13.7C17.506 13.7 3 23.2811 3 35.1C3 46.9189 17.506 56.5 35.4 56.5Z" fill="#DC0753"/>
<path d="M67.8 24.4C67.8 12.6 53.3 3 35.4 3C17.5 3 3 12.6 3 24.4V26.5C3 38.3 17.5 47.9 35.4 47.9C53.3 47.9 67.8 38.3 67.8 26.5V24.4Z" fill="#EC2B6C"/>
<path d="M62.6 20.3C62.6 11.7 50.4 4.7 35.4 4.7C20.4 4.7 8.2 11.7 8.2 20.3V21.9C8.2 30.5 20.4 37.5 35.4 37.5C50.4 37.5 62.6 30.5 62.6 21.9V20.3Z" fill="#F95A97"/>
<path d="M70.8 24.4C70.8 17.6 66.9 11.4 60 6.8C53.3 2.4 44.6 0 35.4 0C26.2 0 17.4 2.4 10.8 6.8C3.8 11.4 0 17.7 0 24.4V26.5C0 27.9 0.2 29.4 0.5 30.8C0.1 32.2 0 33.7 0 35.1C0 36.5 0.2 38 0.5 39.4C0.1 40.8 0 42.3 0 43.7V45.8C0 52.6 3.9 58.8 10.8 63.4C17.4 67.8 26.1 70.2 35.4 70.2C44.7 70.2 53.4 67.8 60 63.4C67 58.8 70.8 52.5 70.8 45.8V43.7C70.8 42.3 70.6 40.8 70.3 39.4C70.7 38 70.8 36.5 70.8 35.1C70.8 33.7 70.6 32.2 70.3 30.8C70.7 29.4 70.8 27.9 70.8 26.5V24.4ZM66.7 42.8C66.7 43.1 66.7 45.8 66.7 45.8C66.7 57 52.6 66.2 35.3 66.2C18 66.2 3.9 57.1 3.9 45.8C3.9 45.8 3.9 43.1 3.9 42.8C3.9 42.8 4.5 43.9 4.9 44.4L5 44.5C5.3 45 5.7 45.4 6 45.8L6.1 45.9C6.5 46.3 6.9 46.8 7.3 47.2C7.4 47.3 7.4 47.3 7.5 47.4C7.9 47.8 8.3 48.2 8.8 48.6C8.9 48.7 9 48.7 9 48.8C9.5 49.2 9.9 49.6 10.4 49.9C10.5 50 10.6 50 10.6 50.1C11.1 50.5 11.6 50.8 12.2 51.2C12.2 51.2 12.3 51.2 12.3 51.3C12.8 51.6 13.4 52 14 52.3C14.1 52.3 14.1 52.4 14.2 52.4C14.8 52.7 15.4 53 16 53.3C16.1 53.3 16.2 53.4 16.3 53.4C16.9 53.7 17.5 53.9 18.1 54.2C18.2 54.2 18.3 54.3 18.4 54.3C19 54.5 19.7 54.8 20.3 55C20.4 55 20.5 55.1 20.6 55.1C21.3 55.3 22 55.5 22.7 55.7H22.8C23.5 55.9 24.2 56.1 25 56.2C25.1 56.2 25.2 56.2 25.2 56.3C25.9 56.5 26.6 56.6 27.4 56.7C27.5 56.7 27.6 56.7 27.8 56.8C28.5 56.9 29.3 57 30 57.1C30.1 57.1 30.3 57.1 30.4 57.1C31.1 57.2 31.9 57.2 32.7 57.3C32.8 57.3 32.9 57.3 33 57.3C33.8 57.3 34.6 57.4 35.4 57.4C36.2 57.4 37 57.4 37.8 57.3C37.9 57.3 38 57.3 38.1 57.3C38.9 57.3 39.6 57.2 40.4 57.1C40.5 57.1 40.7 57.1 40.8 57.1C41.5 57 42.3 56.9 43 56.8C43.1 56.8 43.2 56.8 43.4 56.7C44.1 56.6 44.9 56.4 45.6 56.3C45.7 56.3 45.8 56.3 45.8 56.2C46.5 56 47.3 55.9 48 55.7H48.1C48.8 55.5 49.5 55.3 50.2 55.1C50.3 55.1 50.4 55 50.5 55C51.2 54.8 51.8 54.5 52.4 54.3C52.5 54.3 52.6 54.2 52.7 54.2C53.3 53.9 53.9 53.7 54.5 53.4C54.6 53.4 54.7 53.3 54.8 53.3C55.4 53 56 52.7 56.6 52.4C56.7 52.4 56.7 52.3 56.8 52.3C57.4 52 57.9 51.6 58.5 51.3C58.5 51.3 58.6 51.3 58.6 51.2C59.1 50.9 59.7 50.5 60.2 50.1C60.3 50 60.4 50 60.4 49.9C60.9 49.5 61.4 49.2 61.8 48.8C61.9 48.7 62 48.7 62 48.6C62.4 48.2 62.9 47.8 63.3 47.4C63.4 47.3 63.4 47.3 63.5 47.2C63.9 46.8 64.3 46.3 64.7 45.9L64.8 45.8C65.2 45.4 65.5 44.9 65.8 44.5L65.9 44.4C66.1 43.9 66.7 42.9 66.7 42.8ZM3.9 26.5V24.4C3.9 13.2 18 4 35.3 4C52.6 4 66.7 13.1 66.7 24.4V26.5C66.7 27.8 66.5 29.2 66.1 30.5C65.7 31.9 65 33.2 64.1 34.5C59.1 42 47.8 46.8 35.3 46.8C22.8 46.8 11.5 42 6.5 34.6C5.6 33.3 5 31.9 4.5 30.6C4.1 29.2 3.9 27.9 3.9 26.5ZM66.7 34.4L66.8 34.3C66.8 34.6 66.8 34.9 66.8 35.2C66.8 36.5 66.6 37.9 66.2 39.2C63.3 48.7 50.3 55.6 35.4 55.6C20.5 55.6 7.5 48.7 4.6 39.2C4.2 37.9 4 36.5 4 35.2C4 34.9 4 34.6 4 34.3L4.1 34.4C4.3 34.8 4.6 35.3 4.9 35.7C10.3 43.7 22.2 48.9 35.4 48.9C48.6 48.9 60.5 43.7 65.9 35.7C66.1 35.2 66.4 34.8 66.7 34.4Z" fill="#210C01"/>
</svg>
