<svg width="320" height="30" viewBox="0 0 320 30" fill="none" xmlns="http://www.w3.org/2000/svg">
<path d="M10.996 29.1633H0.717132C0.358566 29.1633 0 28.8048 0 28.4462V1.6733C0 1.31474 0.358566 0.956164 0.717132 0.956164H10.8765C11.2351 0.956164 11.5936 1.31474 11.5936 1.6733V4.06374C11.5936 4.66135 12.3108 5.01992 12.7888 4.66135C16.0159 1.79283 20.0797 0.358555 24.9801 0.358555H25.3386C30.3586 0.358555 34.0638 2.03187 36.0956 5.25896C36.3347 5.61753 36.8128 5.73705 37.1713 5.37848C40.996 2.03187 45.4183 0.358555 50.6773 0.358555H51.1554C55.4582 0.358555 58.6853 1.43426 60.8367 3.58565C62.9881 5.73705 64.0638 8.36653 64.0638 11.3546V28.4462C64.0638 28.8048 63.7052 29.1633 63.3466 29.1633H53.0677C52.7092 29.1633 52.3506 28.8048 52.3506 28.4462V15.2988C52.3506 10.6374 50.1992 8.24701 46.0159 8.24701C43.6255 8.24701 41.5936 8.96414 40.1594 10.3984C38.7251 11.8327 38.008 13.6255 38.008 15.8964V28.4462C38.008 28.8048 37.6494 29.1633 37.2908 29.1633H27.012C26.6534 29.1633 26.2948 28.8048 26.2948 28.4462V15.2988C26.2948 13.1474 25.8167 11.4741 24.741 10.1594C23.6653 8.84462 22.1116 8.24701 19.8406 8.24701C17.4502 8.24701 15.4183 8.96414 13.9841 10.3984C12.5498 11.8327 11.8327 13.6255 11.8327 15.8964V28.4462C11.7131 28.8048 11.3546 29.1633 10.996 29.1633Z" fill="#0A0A00"/>
<path d="M94.1833 26.4143C93.9442 25.9363 93.4662 25.8167 92.9881 26.0558C90.3586 28.4462 86.2948 29.6414 80.7968 29.6414H80.0797C75.6574 29.6414 72.3108 28.8048 70.1594 27.012C68.008 25.2191 66.9323 23.0677 66.9323 20.4382V20.0797C66.9323 17.4502 67.8885 15.5379 69.6813 14.2231C71.4741 12.9084 74.5817 12.0717 78.765 11.7131L91.6733 10.5179C92.8685 10.3984 93.4661 9.92032 93.4661 9.08366C93.4661 8.60558 93.3466 8.24701 93.1076 8.00796C92.8685 7.76892 92.1514 7.41036 90.9562 7.17132C89.761 6.93227 88.2072 6.81275 86.0558 6.81275H85.8167C84.1434 6.81275 82.8287 6.93227 81.753 7.17132C80.6773 7.41036 79.9602 7.6494 79.4821 8.12749C79.004 8.48605 78.765 8.84462 78.6454 9.08366C78.6454 9.20319 78.5259 9.32271 78.5259 9.44223C78.4064 9.8008 78.1673 10.0398 77.8088 10.0398H67.5299V9.68127C67.5299 8.7251 67.6494 8.00797 67.7689 7.29084C67.8885 6.5737 68.3665 5.73705 68.9642 4.78088C69.6813 3.8247 70.5179 3.10757 71.5936 2.39044C72.6693 1.79283 74.3426 1.19522 76.494 0.83665C78.6454 0.358562 81.2749 0.23904 84.263 0.23904H87.1315C90.2391 0.23904 92.9881 0.478084 95.1395 0.83665C97.4104 1.19522 99.0837 1.67331 100.279 2.27092C101.474 2.86853 102.43 3.58565 103.028 4.42231C103.745 5.25896 104.104 6.09561 104.223 6.81275C104.343 7.52988 104.462 8.36653 104.462 9.3227V20.0797C104.462 21.0359 104.94 21.5139 105.896 21.5139H106.733C107.092 21.5139 107.45 21.8725 107.45 22.2311V28.4462C107.45 28.8048 107.092 29.1633 106.733 29.1633H98.008C96.8128 29.1633 95.8566 28.8048 95.0199 28.2072C94.9004 27.7291 94.4223 27.1315 94.1833 26.4143ZM93.5857 16.6135C93.5857 16.1355 93.2271 15.7769 92.749 15.8964L82.4701 17.4502C80.9163 17.6892 79.8407 18.0478 79.243 18.4064C78.6454 18.7649 78.2869 19.3625 78.2869 20.0797C78.2869 20.9163 78.6454 21.753 79.4821 22.3506C80.3187 22.9482 81.6335 23.3068 83.4263 23.3068C86.4144 23.3068 88.9243 22.5896 90.8367 21.2749C92.6295 19.9602 93.5857 18.4064 93.5857 16.6135Z" fill="#0A0A00"/>
<path d="M131.474 29.8805H128.606C125.498 29.8805 122.749 29.5219 120.359 28.9243C117.968 28.3267 116.056 27.49 114.622 26.5339C113.187 25.5777 112.112 24.3825 111.155 23.0677C110.199 21.753 109.602 20.4382 109.363 19.243C109.004 17.9283 108.884 16.7331 108.884 15.2988V14.2231C108.884 12.9084 109.004 11.5936 109.363 10.2789C109.721 9.08366 110.319 7.76893 111.155 6.45419C111.992 5.13944 113.187 4.06374 114.622 3.10757C116.056 2.15139 117.968 1.43426 120.359 0.83665C122.749 0.23904 125.498 0 128.486 0H131.474C134.223 0 136.733 0.239044 139.004 0.59761C141.275 1.0757 143.068 1.55379 144.382 2.27092C145.817 2.98805 146.892 3.8247 147.849 4.66136C148.805 5.49801 149.522 6.45418 150 7.41036C150.478 8.36653 150.717 9.20319 150.956 10.0398C151.076 10.757 151.195 11.5936 151.195 12.3108V12.4303H139.721C139.363 12.4303 139.124 12.1912 139.004 11.9522C138.048 8.84462 134.94 7.41036 129.801 7.41036H129.681C126.574 7.41036 124.303 8.00796 122.869 9.3227C121.434 10.6374 120.717 12.3108 120.717 14.3426V14.7012C120.717 16.8526 121.434 18.6454 122.869 20.0797C124.303 21.5139 126.574 22.2311 129.681 22.2311H129.801C131.594 22.2311 133.147 21.992 134.462 21.6335C135.777 21.2749 136.733 20.6773 137.331 20.0797C137.928 19.3625 138.406 18.8845 138.645 18.4064C138.765 18.1673 138.884 17.9283 139.004 17.5697C139.124 17.2112 139.363 17.0916 139.721 17.0916H151.195V17.2112C151.195 18.1673 151.076 19.1235 150.837 20.0797C150.598 21.0359 150.12 22.1116 149.283 23.3068C148.446 24.502 147.371 25.5777 146.056 26.5339C144.741 27.3705 142.709 28.2072 140.199 28.8048C137.928 29.6414 134.94 29.8805 131.474 29.8805Z" fill="#0A0A00"/>
<path d="M180 26.4143C179.761 25.9363 179.283 25.8167 178.805 26.0558C176.175 28.4462 172.112 29.6414 166.614 29.6414H165.896C161.474 29.6414 158.128 28.8048 155.976 27.012C153.825 25.2191 152.749 23.0677 152.749 20.4382V20.0797C152.749 17.4502 153.705 15.5379 155.498 14.2231C157.291 12.9084 160.398 12.0717 164.582 11.7131L177.49 10.5179C178.685 10.3984 179.283 9.92032 179.283 9.08366C179.283 8.60558 179.163 8.24701 178.924 8.00796C178.685 7.76892 177.968 7.41036 176.773 7.17132C175.578 6.93227 174.024 6.81275 171.873 6.81275H171.633C169.96 6.81275 168.645 6.93227 167.57 7.17132C166.494 7.41036 165.777 7.6494 165.299 8.12749C164.821 8.48605 164.582 8.84462 164.462 9.08366C164.462 9.20319 164.343 9.32271 164.343 9.44223C164.223 9.8008 163.984 10.0398 163.626 10.0398H153.347V9.68127C153.347 8.7251 153.466 8.00797 153.586 7.29084C153.705 6.5737 154.183 5.73705 154.781 4.78088C155.498 3.8247 156.335 3.10757 157.41 2.39044C158.486 1.79283 160.159 1.19522 162.311 0.83665C164.462 0.358562 167.092 0.23904 170.08 0.23904H172.948C176.056 0.23904 178.805 0.478084 180.956 0.83665C183.227 1.19522 184.9 1.67331 186.096 2.27092C187.291 2.86853 188.247 3.58565 188.845 4.42231C189.562 5.25896 189.92 6.09561 190.04 6.81275C190.159 7.52988 190.279 8.36653 190.279 9.3227V20.0797C190.279 21.0359 190.757 21.5139 191.713 21.5139H192.55C192.908 21.5139 193.267 21.8725 193.267 22.2311V28.4462C193.267 28.8048 192.908 29.1633 192.55 29.1633H183.825C182.63 29.1633 181.673 28.8048 180.837 28.2072C180.717 27.7291 180.239 27.1315 180 26.4143ZM179.402 16.6135C179.402 16.1355 179.044 15.7769 178.566 15.8964L168.287 17.4502C166.733 17.6892 165.657 18.0478 165.06 18.4064C164.462 18.7649 164.104 19.3625 164.104 20.0797C164.104 20.9163 164.462 21.753 165.299 22.3506C166.135 22.9482 167.45 23.3068 169.243 23.3068C172.231 23.3068 174.741 22.5896 176.653 21.2749C178.446 19.9602 179.402 18.4064 179.402 16.6135Z" fill="#0A0A00"/>
<path d="M207.729 14.5817V28.4462C207.729 28.8048 207.371 29.1634 207.012 29.1634H196.853C196.494 29.1634 196.135 28.8048 196.135 28.4462V1.67331C196.135 1.31474 196.494 0.95617 196.853 0.95617H207.012C207.371 0.95617 207.729 1.31474 207.729 1.67331V3.8247C207.729 4.54183 208.566 4.78088 209.044 4.30279C209.522 3.8247 210.239 3.22709 211.195 2.50996C212.151 1.79283 213.227 1.31474 214.661 0.83665C216.096 0.358562 217.53 0.23904 219.203 0.23904H219.801C223.745 0.23904 226.614 1.31474 228.526 3.58566C230.438 5.85657 231.275 8.96414 231.275 12.7888V13.6255C231.275 13.9841 230.916 14.3426 230.558 14.3426H220.757C220.398 14.3426 220.04 14.1036 220.04 13.6255C219.92 11.9522 219.442 10.5179 218.606 9.44223C217.649 8.12749 216.096 7.52988 214.064 7.52988C212.151 7.52988 210.717 8.12749 209.641 9.44223C208.327 10.996 207.729 12.6693 207.729 14.5817Z" fill="#0A0A00"/>
<path d="M253.147 29.8805C250.04 29.8805 247.171 29.6414 244.781 29.0438C242.39 28.4462 240.359 27.7291 238.924 26.7729C237.49 25.8167 236.295 24.6215 235.339 23.4263C234.383 22.1116 233.785 20.7968 233.426 19.6016C233.068 18.2869 232.948 16.9721 232.948 15.5379V14.4622C232.948 13.0279 233.068 11.7131 233.426 10.5179C233.785 9.20318 234.383 8.00797 235.339 6.69323C236.295 5.37849 237.49 4.30278 238.924 3.34661C240.359 2.39043 242.39 1.67331 244.781 1.0757C247.171 0.47809 250.04 0.23904 253.147 0.23904H256.853C270.239 0.23904 277.052 5.01992 277.052 14.4622V15.4183C277.052 16.8526 276.932 18.2868 276.693 19.4821C276.454 20.6773 275.857 21.992 275.02 23.3068C274.183 24.6215 272.988 25.8167 271.554 26.7729C270.12 27.7291 268.207 28.4462 265.697 29.0438C263.187 29.6414 260.319 30 256.972 30H253.147V29.8805ZM247.171 20.1992C248.725 21.6335 251.355 22.3506 254.94 22.3506C258.526 22.3506 261.155 21.6335 262.709 20.1992C264.263 18.7649 265.1 17.0916 265.1 15.0598V14.8207C265.1 12.7888 264.263 11.1155 262.709 9.80079C261.155 8.48605 258.526 7.76893 254.94 7.76893C251.235 7.76893 248.606 8.48605 247.052 9.80079C245.498 11.1155 244.781 12.7888 244.781 14.9402V15.1793C244.9 16.9721 245.618 18.7649 247.171 20.1992Z" fill="#0A0A00"/>
<path d="M280.279 28.4462V1.6733C280.279 1.31474 280.638 0.956164 280.996 0.956164H291.155C291.514 0.956164 291.873 1.31474 291.873 1.6733V4.18326C291.873 4.78087 292.59 5.13944 293.068 4.78087C296.653 1.91235 300.837 0.358555 305.857 0.358555H306.215C310.757 0.358555 314.223 1.43426 316.494 3.58565C318.765 5.73705 319.96 8.36653 319.96 11.3546V28.4462C319.96 28.8048 319.602 29.1633 319.243 29.1633H308.964C308.606 29.1633 308.247 28.8048 308.247 28.4462V15.2988C308.247 13.1474 307.649 11.3546 306.335 10.1594C305.02 8.96414 303.227 8.24701 300.717 8.24701C298.088 8.24701 296.056 8.96414 294.383 10.3984C292.829 11.8327 291.992 13.6255 291.992 15.8964V28.4462C291.992 28.8048 291.634 29.1633 291.275 29.1633H281.116C280.637 29.1633 280.279 28.8048 280.279 28.4462Z" fill="#0A0A00"/>
</svg>
