<svg width="411" height="71" viewBox="0 0 411 71" fill="none" xmlns="http://www.w3.org/2000/svg">
<path d="M67.8 43.7C67.8 31.9 53.3 22.3 35.4 22.3C17.5 22.3 3 31.9 3 43.7V45.8C3 57.6 17.5 67.2 35.4 67.2C53.3 67.2 67.8 57.6 67.8 45.8V43.7Z" fill="#EC2B6C"/>
<path d="M35.4 60.1C53.1836 60.1 67.6 51.6382 67.6 41.2C67.6 30.7618 53.1836 22.3 35.4 22.3C17.6164 22.3 3.2 30.7618 3.2 41.2C3.2 51.6382 17.6164 60.1 35.4 60.1Z" fill="#F95A97"/>
<path d="M35.4 56.5C53.294 56.5 67.8 46.9189 67.8 35.1C67.8 23.2811 53.294 13.7 35.4 13.7C17.506 13.7 3 23.2811 3 35.1C3 46.9189 17.506 56.5 35.4 56.5Z" fill="#DC0753"/>
<path d="M67.8 24.4C67.8 12.6 53.3 3 35.4 3C17.5 3 3 12.6 3 24.4V26.5C3 38.3 17.5 47.9 35.4 47.9C53.3 47.9 67.8 38.3 67.8 26.5V24.4Z" fill="#D1C7E8"/>
<path d="M67.8 24.4C67.8 12.6 53.3 3 35.4 3C17.5 3 3 12.6 3 24.4V26.5C3 38.3 17.5 47.9 35.4 47.9C53.3 47.9 67.8 38.3 67.8 26.5V24.4Z" fill="#EC2B6C"/>
<path d="M62.6 20.3C62.6 11.7 50.4 4.7 35.4 4.7C20.4 4.7 8.2 11.7 8.2 20.3V21.9C8.2 30.5 20.4 37.5 35.4 37.5C50.4 37.5 62.6 30.5 62.6 21.9V20.3Z" fill="#F95A97"/>
<path d="M70.8 24.4C70.8 17.6 66.9 11.4 60 6.8C53.3 2.4 44.6 0 35.4 0C26.2 0 17.4 2.4 10.8 6.8C3.8 11.4 0 17.7 0 24.4V26.5C0 27.9 0.2 29.4 0.5 30.8C0.1 32.2 0 33.7 0 35.1C0 36.5 0.2 38 0.5 39.4C0.1 40.8 0 42.3 0 43.7V45.8C0 52.6 3.9 58.8 10.8 63.4C17.4 67.8 26.1 70.2 35.4 70.2C44.7 70.2 53.4 67.8 60 63.4C67 58.8 70.8 52.5 70.8 45.8V43.7C70.8 42.3 70.6 40.8 70.3 39.4C70.7 38 70.8 36.5 70.8 35.1C70.8 33.7 70.6 32.2 70.3 30.8C70.7 29.4 70.8 27.9 70.8 26.5V24.4ZM66.7 42.8C66.7 43.1 66.7 45.8 66.7 45.8C66.7 57 52.6 66.2 35.3 66.2C18 66.2 3.9 57.1 3.9 45.8C3.9 45.8 3.9 43.1 3.9 42.8C3.9 42.8 4.5 43.9 4.9 44.4L5 44.5C5.3 45 5.7 45.4 6 45.8L6.1 45.9C6.5 46.3 6.9 46.8 7.3 47.2C7.4 47.3 7.4 47.3 7.5 47.4C7.9 47.8 8.3 48.2 8.8 48.6C8.9 48.7 9 48.7 9 48.8C9.5 49.2 9.9 49.6 10.4 49.9C10.5 50 10.6 50 10.6 50.1C11.1 50.5 11.6 50.8 12.2 51.2C12.2 51.2 12.3 51.2 12.3 51.3C12.8 51.6 13.4 52 14 52.3C14.1 52.3 14.1 52.4 14.2 52.4C14.8 52.7 15.4 53 16 53.3C16.1 53.3 16.2 53.4 16.3 53.4C16.9 53.7 17.5 53.9 18.1 54.2C18.2 54.2 18.3 54.3 18.4 54.3C19 54.5 19.7 54.8 20.3 55C20.4 55 20.5 55.1 20.6 55.1C21.3 55.3 22 55.5 22.7 55.7H22.8C23.5 55.9 24.2 56.1 25 56.2C25.1 56.2 25.2 56.2 25.2 56.3C25.9 56.5 26.6 56.6 27.4 56.7C27.5 56.7 27.6 56.7 27.8 56.8C28.5 56.9 29.3 57 30 57.1C30.1 57.1 30.3 57.1 30.4 57.1C31.1 57.2 31.9 57.2 32.7 57.3C32.8 57.3 32.9 57.3 33 57.3C33.8 57.3 34.6 57.4 35.4 57.4C36.2 57.4 37 57.4 37.8 57.3C37.9 57.3 38 57.3 38.1 57.3C38.9 57.3 39.6 57.2 40.4 57.1C40.5 57.1 40.7 57.1 40.8 57.1C41.5 57 42.3 56.9 43 56.8C43.1 56.8 43.2 56.8 43.4 56.7C44.1 56.6 44.9 56.4 45.6 56.3C45.7 56.3 45.8 56.3 45.8 56.2C46.5 56 47.3 55.9 48 55.7H48.1C48.8 55.5 49.5 55.3 50.2 55.1C50.3 55.1 50.4 55 50.5 55C51.2 54.8 51.8 54.5 52.4 54.3C52.5 54.3 52.6 54.2 52.7 54.2C53.3 53.9 53.9 53.7 54.5 53.4C54.6 53.4 54.7 53.3 54.8 53.3C55.4 53 56 52.7 56.6 52.4C56.7 52.4 56.7 52.3 56.8 52.3C57.4 52 57.9 51.6 58.5 51.3C58.5 51.3 58.6 51.3 58.6 51.2C59.1 50.9 59.7 50.5 60.2 50.1C60.3 50 60.4 50 60.4 49.9C60.9 49.5 61.4 49.2 61.8 48.8C61.9 48.7 62 48.7 62 48.6C62.4 48.2 62.9 47.8 63.3 47.4C63.4 47.3 63.4 47.3 63.5 47.2C63.9 46.8 64.3 46.3 64.7 45.9L64.8 45.8C65.2 45.4 65.5 44.9 65.8 44.5L65.9 44.4C66.1 43.9 66.7 42.9 66.7 42.8ZM3.9 26.5V24.4C3.9 13.2 18 4 35.3 4C52.6 4 66.7 13.1 66.7 24.4V26.5C66.7 27.8 66.5 29.2 66.1 30.5C65.7 31.9 65 33.2 64.1 34.5C59.1 42 47.8 46.8 35.3 46.8C22.8 46.8 11.5 42 6.5 34.6C5.6 33.3 5 31.9 4.5 30.6C4.1 29.2 3.9 27.9 3.9 26.5ZM66.7 34.4L66.8 34.3C66.8 34.6 66.8 34.9 66.8 35.2C66.8 36.5 66.6 37.9 66.2 39.2C63.3 48.7 50.3 55.6 35.4 55.6C20.5 55.6 7.5 48.7 4.6 39.2C4.2 37.9 4 36.5 4 35.2C4 34.9 4 34.6 4 34.3L4.1 34.4C4.3 34.8 4.6 35.3 4.9 35.7C10.3 43.7 22.2 48.9 35.4 48.9C48.6 48.9 60.5 43.7 65.9 35.7C66.1 35.2 66.4 34.8 66.7 34.4Z" fill="#210C01"/>
<path d="M101.796 49.2633H91.5171C91.1586 49.2633 90.8 48.9048 90.8 48.5462V21.7733C90.8 21.4147 91.1586 21.0562 91.5171 21.0562H101.676C102.035 21.0562 102.394 21.4147 102.394 21.7733V24.1637C102.394 24.7614 103.111 25.1199 103.589 24.7614C106.816 21.8928 110.88 20.4586 115.78 20.4586H116.139C121.159 20.4586 124.864 22.1319 126.896 25.359C127.135 25.7175 127.613 25.837 127.971 25.4785C131.796 22.1319 136.218 20.4586 141.477 20.4586H141.955C146.258 20.4586 149.485 21.5343 151.637 23.6857C153.788 25.837 154.864 28.4665 154.864 31.4546V48.5462C154.864 48.9048 154.505 49.2633 154.147 49.2633H143.868C143.509 49.2633 143.151 48.9048 143.151 48.5462V35.3988C143.151 30.7374 140.999 28.347 136.816 28.347C134.426 28.347 132.394 29.0641 130.959 30.4984C129.525 31.9327 128.808 33.7255 128.808 35.9964V48.5462C128.808 48.9048 128.449 49.2633 128.091 49.2633H117.812C117.453 49.2633 117.095 48.9048 117.095 48.5462V35.3988C117.095 33.2474 116.617 31.5741 115.541 30.2594C114.465 28.9446 112.912 28.347 110.641 28.347C108.25 28.347 106.218 29.0641 104.784 30.4984C103.35 31.9327 102.633 33.7255 102.633 35.9964V48.5462C102.513 48.9048 102.155 49.2633 101.796 49.2633Z" fill="#efefef"/>
<path d="M184.983 46.5144C184.744 46.0363 184.266 45.9167 183.788 46.1558C181.159 48.5462 177.095 49.7414 171.597 49.7414H170.88C166.457 49.7414 163.111 48.9048 160.959 47.112C158.808 45.3191 157.732 43.1677 157.732 40.5383V40.1797C157.732 37.5502 158.688 35.6379 160.481 34.3231C162.274 33.0084 165.382 32.1717 169.565 31.8132L182.473 30.6179C183.669 30.4984 184.266 30.0203 184.266 29.1837C184.266 28.7056 184.147 28.347 183.908 28.108C183.669 27.8689 182.951 27.5104 181.756 27.2713C180.561 27.0323 179.007 26.9128 176.856 26.9128H176.617C174.943 26.9128 173.629 27.0323 172.553 27.2713C171.477 27.5104 170.76 27.7494 170.282 28.2275C169.804 28.5861 169.565 28.9446 169.445 29.1837C169.445 29.3032 169.326 29.4227 169.326 29.5422C169.206 29.9008 168.967 30.1399 168.609 30.1399H158.33V29.7813C158.33 28.8251 158.449 28.108 158.569 27.3908C158.688 26.6737 159.167 25.8371 159.764 24.8809C160.481 23.9247 161.318 23.2076 162.394 22.4904C163.469 21.8928 165.143 21.2952 167.294 20.9367C169.445 20.4586 172.075 20.3391 175.063 20.3391H177.931C181.039 20.3391 183.788 20.5781 185.939 20.9367C188.21 21.2952 189.884 21.7733 191.079 22.3709C192.274 22.9685 193.23 23.6857 193.828 24.5223C194.545 25.359 194.904 26.1956 195.023 26.9128C195.143 27.6299 195.262 28.4665 195.262 29.4227V40.1797C195.262 41.1359 195.74 41.614 196.696 41.614H197.533C197.892 41.614 198.25 41.9725 198.25 42.3311V48.5462C198.25 48.9048 197.892 49.2634 197.533 49.2634H188.808C187.613 49.2634 186.657 48.9048 185.82 48.3072C185.7 47.8291 185.222 47.2315 184.983 46.5144ZM184.386 36.7136C184.386 36.2355 184.027 35.8769 183.549 35.9964L173.27 37.5502C171.716 37.7893 170.641 38.1478 170.043 38.5064C169.445 38.865 169.087 39.4626 169.087 40.1797C169.087 41.0163 169.445 41.853 170.282 42.4506C171.119 43.0482 172.433 43.4068 174.226 43.4068C177.214 43.4068 179.724 42.6896 181.637 41.3749C183.429 40.0602 184.386 38.5064 184.386 36.7136Z" fill="#efefef"/>
<path d="M222.274 49.9805H219.406C216.298 49.9805 213.549 49.6219 211.159 49.0243C208.768 48.4267 206.856 47.59 205.422 46.6339C203.987 45.6777 202.912 44.4825 201.955 43.1677C200.999 41.853 200.402 40.5383 200.163 39.343C199.804 38.0283 199.684 36.8331 199.684 35.3988V34.3231C199.684 33.0084 199.804 31.6936 200.163 30.3789C200.521 29.1837 201.119 27.8689 201.955 26.5542C202.792 25.2395 203.987 24.1637 205.422 23.2076C206.856 22.2514 208.768 21.5343 211.159 20.9367C213.549 20.339 216.298 20.1 219.286 20.1H222.274C225.023 20.1 227.533 20.339 229.804 20.6976C232.075 21.1757 233.868 21.6538 235.182 22.3709C236.617 23.0881 237.692 23.9247 238.649 24.7614C239.605 25.598 240.322 26.5542 240.8 27.5104C241.278 28.4665 241.517 29.3032 241.756 30.1398C241.876 30.857 241.995 31.6936 241.995 32.4108V32.5303H230.521C230.163 32.5303 229.924 32.2912 229.804 32.0522C228.848 28.9446 225.74 27.5104 220.601 27.5104H220.481C217.374 27.5104 215.103 28.108 213.669 29.4227C212.234 30.7375 211.517 32.4108 211.517 34.4426V34.8012C211.517 36.9526 212.234 38.7454 213.669 40.1797C215.103 41.6139 217.374 42.3311 220.481 42.3311H220.601C222.394 42.3311 223.947 42.092 225.262 41.7335C226.577 41.3749 227.533 40.7773 228.131 40.1797C228.728 39.4626 229.206 38.9845 229.445 38.5064C229.565 38.2673 229.684 38.0283 229.804 37.6697C229.924 37.3112 230.163 37.1916 230.521 37.1916H241.995V37.3112C241.995 38.2673 241.876 39.2235 241.637 40.1797C241.398 41.1359 240.92 42.2116 240.083 43.4068C239.246 44.602 238.171 45.6777 236.856 46.6339C235.541 47.4705 233.509 48.3072 230.999 48.9048C228.728 49.7414 225.74 49.9805 222.274 49.9805Z" fill="#efefef"/>
<path d="M270.8 46.5144C270.561 46.0363 270.083 45.9167 269.605 46.1558C266.975 48.5462 262.912 49.7414 257.414 49.7414H256.696C252.274 49.7414 248.928 48.9048 246.776 47.112C244.625 45.3191 243.549 43.1677 243.549 40.5383V40.1797C243.549 37.5502 244.505 35.6379 246.298 34.3231C248.091 33.0084 251.198 32.1717 255.382 31.8132L268.29 30.6179C269.485 30.4984 270.083 30.0203 270.083 29.1837C270.083 28.7056 269.963 28.347 269.724 28.108C269.485 27.8689 268.768 27.5104 267.573 27.2713C266.378 27.0323 264.824 26.9128 262.673 26.9128H262.433C260.76 26.9128 259.445 27.0323 258.37 27.2713C257.294 27.5104 256.577 27.7494 256.099 28.2275C255.621 28.5861 255.382 28.9446 255.262 29.1837C255.262 29.3032 255.143 29.4227 255.143 29.5422C255.023 29.9008 254.784 30.1399 254.426 30.1399H244.147V29.7813C244.147 28.8251 244.266 28.108 244.386 27.3908C244.505 26.6737 244.983 25.8371 245.581 24.8809C246.298 23.9247 247.135 23.2076 248.21 22.4904C249.286 21.8928 250.959 21.2952 253.111 20.9367C255.262 20.4586 257.892 20.3391 260.88 20.3391H263.748C266.856 20.3391 269.605 20.5781 271.756 20.9367C274.027 21.2952 275.7 21.7733 276.896 22.3709C278.091 22.9685 279.047 23.6857 279.645 24.5223C280.362 25.359 280.72 26.1956 280.84 26.9128C280.959 27.6299 281.079 28.4665 281.079 29.4227V40.1797C281.079 41.1359 281.557 41.614 282.513 41.614H283.35C283.708 41.614 284.067 41.9725 284.067 42.3311V48.5462C284.067 48.9048 283.708 49.2634 283.35 49.2634H274.625C273.43 49.2634 272.473 48.9048 271.637 48.3072C271.517 47.8291 271.039 47.2315 270.8 46.5144ZM270.202 36.7136C270.202 36.2355 269.844 35.8769 269.366 35.9964L259.087 37.5502C257.533 37.7893 256.457 38.1478 255.86 38.5064C255.262 38.865 254.904 39.4626 254.904 40.1797C254.904 41.0163 255.262 41.853 256.099 42.4506C256.935 43.0482 258.25 43.4068 260.043 43.4068C263.031 43.4068 265.541 42.6896 267.453 41.3749C269.246 40.0602 270.202 38.5064 270.202 36.7136Z" fill="#efefef"/>
<path d="M298.529 34.6817V48.5462C298.529 48.9048 298.171 49.2634 297.812 49.2634H287.653C287.294 49.2634 286.936 48.9048 286.936 48.5462V21.7733C286.936 21.4148 287.294 21.0562 287.653 21.0562H297.812C298.171 21.0562 298.529 21.4148 298.529 21.7733V23.9247C298.529 24.6418 299.366 24.8809 299.844 24.4028C300.322 23.9247 301.039 23.3271 301.995 22.61C302.951 21.8928 304.027 21.4147 305.461 20.9367C306.896 20.4586 308.33 20.3391 310.003 20.3391H310.601C314.545 20.3391 317.414 21.4148 319.326 23.6857C321.238 25.9566 322.075 29.0642 322.075 32.8889V33.7255C322.075 34.0841 321.716 34.4426 321.358 34.4426H311.557C311.198 34.4426 310.84 34.2036 310.84 33.7255C310.72 32.0522 310.242 30.6179 309.406 29.5422C308.449 28.2275 306.896 27.6299 304.864 27.6299C302.951 27.6299 301.517 28.2275 300.441 29.5422C299.127 31.096 298.529 32.7693 298.529 34.6817Z" fill="#efefef"/>
<path d="M343.947 49.9805C340.84 49.9805 337.971 49.7414 335.581 49.1438C333.19 48.5462 331.159 47.8291 329.724 46.8729C328.29 45.9167 327.095 44.7215 326.139 43.5263C325.182 42.2116 324.585 40.8968 324.226 39.7016C323.868 38.3869 323.748 37.0721 323.748 35.6379V34.5622C323.748 33.1279 323.868 31.8132 324.226 30.6179C324.585 29.3032 325.182 28.108 326.139 26.7932C327.095 25.4785 328.29 24.4028 329.724 23.4466C331.159 22.4904 333.19 21.7733 335.581 21.1757C337.971 20.5781 340.84 20.3391 343.947 20.3391H347.653C361.039 20.3391 367.852 25.1199 367.852 34.5622V35.5183C367.852 36.9526 367.732 38.3869 367.493 39.5821C367.254 40.7773 366.657 42.092 365.82 43.4068C364.983 44.7215 363.788 45.9167 362.354 46.8729C360.92 47.8291 359.007 48.5462 356.497 49.1438C353.987 49.7414 351.119 50.1 347.772 50.1H343.947V49.9805ZM337.971 40.2992C339.525 41.7335 342.155 42.4506 345.74 42.4506C349.326 42.4506 351.955 41.7335 353.509 40.2992C355.063 38.865 355.9 37.1916 355.9 35.1598V34.9207C355.9 32.8889 355.063 31.2155 353.509 29.9008C351.955 28.5861 349.326 27.8689 345.74 27.8689C342.035 27.8689 339.406 28.5861 337.852 29.9008C336.298 31.2155 335.581 32.8889 335.581 35.0403V35.2793C335.7 37.0721 336.418 38.865 337.971 40.2992Z" fill="#efefef"/>
<path d="M371.079 48.5462V21.7733C371.079 21.4147 371.437 21.0562 371.796 21.0562H381.955C382.314 21.0562 382.673 21.4147 382.673 21.7733V24.2833C382.673 24.8809 383.39 25.2394 383.868 24.8809C387.453 22.0123 391.637 20.4586 396.657 20.4586H397.015C401.557 20.4586 405.023 21.5343 407.294 23.6857C409.565 25.837 410.76 28.4665 410.76 31.4546V48.5462C410.76 48.9048 410.402 49.2633 410.043 49.2633H399.764C399.406 49.2633 399.047 48.9048 399.047 48.5462V35.3988C399.047 33.2474 398.449 31.4546 397.135 30.2594C395.82 29.0641 394.027 28.347 391.517 28.347C388.888 28.347 386.856 29.0641 385.182 30.4984C383.629 31.9327 382.792 33.7255 382.792 35.9964V48.5462C382.792 48.9048 382.433 49.2633 382.075 49.2633H371.916C371.437 49.2633 371.079 48.9048 371.079 48.5462Z" fill="#efefef"/>
</svg>
