<svg width="268" height="116" viewBox="0 0 268 116" fill="none" xmlns="http://www.w3.org/2000/svg">
<path d="M166.25 43.7C166.25 31.9 151.75 22.3 133.85 22.3C115.95 22.3 101.45 31.9 101.45 43.7V45.8C101.45 57.6 115.95 67.2 133.85 67.2C151.75 67.2 166.25 57.6 166.25 45.8V43.7Z" fill="#EC2B6C"/>
<path d="M133.85 60.1C151.634 60.1 166.05 51.6382 166.05 41.2C166.05 30.7618 151.634 22.3 133.85 22.3C116.066 22.3 101.65 30.7618 101.65 41.2C101.65 51.6382 116.066 60.1 133.85 60.1Z" fill="#F95A97"/>
<path d="M133.85 56.5C151.744 56.5 166.25 46.9189 166.25 35.1C166.25 23.2811 151.744 13.7 133.85 13.7C115.956 13.7 101.45 23.2811 101.45 35.1C101.45 46.9189 115.956 56.5 133.85 56.5Z" fill="#DC0753"/>
<path d="M166.25 24.4C166.25 12.6 151.75 3 133.85 3C115.95 3 101.45 12.6 101.45 24.4V26.5C101.45 38.3 115.95 47.9 133.85 47.9C151.75 47.9 166.25 38.3 166.25 26.5V24.4Z" fill="#D1C7E8"/>
<path d="M166.25 24.4C166.25 12.6 151.75 3 133.85 3C115.95 3 101.45 12.6 101.45 24.4V26.5C101.45 38.3 115.95 47.9 133.85 47.9C151.75 47.9 166.25 38.3 166.25 26.5V24.4Z" fill="#EC2B6C"/>
<path d="M161.05 20.3C161.05 11.7 148.85 4.7 133.85 4.7C118.85 4.7 106.65 11.7 106.65 20.3V21.9C106.65 30.5 118.85 37.5 133.85 37.5C148.85 37.5 161.05 30.5 161.05 21.9V20.3Z" fill="#F95A97"/>
<path d="M169.25 24.4C169.25 17.6 165.35 11.4 158.45 6.8C151.75 2.4 143.05 0 133.85 0C124.65 0 115.85 2.4 109.25 6.8C102.25 11.4 98.45 17.7 98.45 24.4V26.5C98.45 27.9 98.65 29.4 98.95 30.8C98.55 32.2 98.45 33.7 98.45 35.1C98.45 36.5 98.65 38 98.95 39.4C98.55 40.8 98.45 42.3 98.45 43.7V45.8C98.45 52.6 102.35 58.8 109.25 63.4C115.85 67.8 124.55 70.2 133.85 70.2C143.15 70.2 151.85 67.8 158.45 63.4C165.45 58.8 169.25 52.5 169.25 45.8V43.7C169.25 42.3 169.05 40.8 168.75 39.4C169.15 38 169.25 36.5 169.25 35.1C169.25 33.7 169.05 32.2 168.75 30.8C169.15 29.4 169.25 27.9 169.25 26.5V24.4ZM165.15 42.8C165.15 43.1 165.15 45.8 165.15 45.8C165.15 57 151.05 66.2 133.75 66.2C116.45 66.2 102.35 57.1 102.35 45.8C102.35 45.8 102.35 43.1 102.35 42.8C102.35 42.8 102.95 43.9 103.35 44.4L103.45 44.5C103.75 45 104.15 45.4 104.45 45.8L104.55 45.9C104.95 46.3 105.35 46.8 105.75 47.2C105.85 47.3 105.85 47.3 105.95 47.4C106.35 47.8 106.75 48.2 107.25 48.6C107.35 48.7 107.45 48.7 107.45 48.8C107.95 49.2 108.35 49.6 108.85 49.9C108.95 50 109.05 50 109.05 50.1C109.55 50.5 110.05 50.8 110.65 51.2C110.65 51.2 110.75 51.2 110.75 51.3C111.25 51.6 111.85 52 112.45 52.3C112.55 52.3 112.55 52.4 112.65 52.4C113.25 52.7 113.85 53 114.45 53.3C114.55 53.3 114.65 53.4 114.75 53.4C115.35 53.7 115.95 53.9 116.55 54.2C116.65 54.2 116.75 54.3 116.85 54.3C117.45 54.5 118.15 54.8 118.75 55C118.85 55 118.95 55.1 119.05 55.1C119.75 55.3 120.45 55.5 121.15 55.7H121.25C121.95 55.9 122.65 56.1 123.45 56.2C123.55 56.2 123.65 56.2 123.65 56.3C124.35 56.5 125.05 56.6 125.85 56.7C125.95 56.7 126.05 56.7 126.25 56.8C126.95 56.9 127.75 57 128.45 57.1C128.55 57.1 128.75 57.1 128.85 57.1C129.55 57.2 130.35 57.2 131.15 57.3C131.25 57.3 131.35 57.3 131.45 57.3C132.25 57.3 133.05 57.4 133.85 57.4C134.65 57.4 135.45 57.4 136.25 57.3C136.35 57.3 136.45 57.3 136.55 57.3C137.35 57.3 138.05 57.2 138.85 57.1C138.95 57.1 139.15 57.1 139.25 57.1C139.95 57 140.75 56.9 141.45 56.8C141.55 56.8 141.65 56.8 141.85 56.7C142.55 56.6 143.35 56.4 144.05 56.3C144.15 56.3 144.25 56.3 144.25 56.2C144.95 56 145.75 55.9 146.45 55.7H146.55C147.25 55.5 147.95 55.3 148.65 55.1C148.75 55.1 148.85 55 148.95 55C149.65 54.8 150.25 54.5 150.85 54.3C150.95 54.3 151.05 54.2 151.15 54.2C151.75 53.9 152.35 53.7 152.95 53.4C153.05 53.4 153.15 53.3 153.25 53.3C153.85 53 154.45 52.7 155.05 52.4C155.15 52.4 155.15 52.3 155.25 52.3C155.85 52 156.35 51.6 156.95 51.3C156.95 51.3 157.05 51.3 157.05 51.2C157.55 50.9 158.15 50.5 158.65 50.1C158.75 50 158.85 50 158.85 49.9C159.35 49.5 159.85 49.2 160.25 48.8C160.35 48.7 160.45 48.7 160.45 48.6C160.85 48.2 161.35 47.8 161.75 47.4C161.85 47.3 161.85 47.3 161.95 47.2C162.35 46.8 162.75 46.3 163.15 45.9L163.25 45.8C163.65 45.4 163.95 44.9 164.25 44.5L164.35 44.4C164.55 43.9 165.15 42.9 165.15 42.8ZM102.35 26.5V24.4C102.35 13.2 116.45 4 133.75 4C151.05 4 165.15 13.1 165.15 24.4V26.5C165.15 27.8 164.95 29.2 164.55 30.5C164.15 31.9 163.45 33.2 162.55 34.5C157.55 42 146.25 46.8 133.75 46.8C121.25 46.8 109.95 42 104.95 34.6C104.05 33.3 103.45 31.9 102.95 30.6C102.55 29.2 102.35 27.9 102.35 26.5ZM165.15 34.4L165.25 34.3C165.25 34.6 165.25 34.9 165.25 35.2C165.25 36.5 165.05 37.9 164.65 39.2C161.75 48.7 148.75 55.6 133.85 55.6C118.95 55.6 105.95 48.7 103.05 39.2C102.65 37.9 102.45 36.5 102.45 35.2C102.45 34.9 102.45 34.6 102.45 34.3L102.55 34.4C102.75 34.8 103.05 35.3 103.35 35.7C108.75 43.7 120.65 48.9 133.85 48.9C147.05 48.9 158.95 43.7 164.35 35.7C164.55 35.2 164.85 34.8 165.15 34.4Z" fill="#210C01"/>
<path d="M9.2 114.6H0.6C0.3 114.6 0 114.3 0 114V91.6C0 91.3 0.3 91 0.6 91H9.1C9.4 91 9.7 91.3 9.7 91.6V93.6C9.7 94.1 10.3 94.4 10.7 94.1C13.4 91.7 16.8 90.5 20.9 90.5H21.2C25.4 90.5 28.5 91.9 30.2 94.6C30.4 94.9 30.8 95 31.1 94.7C34.3 91.9 38 90.5 42.4 90.5H42.8C46.4 90.5 49.1 91.4 50.9 93.2C52.7 95 53.6 97.2 53.6 99.7V114C53.6 114.3 53.3 114.6 53 114.6H44.4C44.1 114.6 43.8 114.3 43.8 114V103C43.8 99.1 42 97.1 38.5 97.1C36.5 97.1 34.8 97.7 33.6 98.9C32.4 100.1 31.8 101.6 31.8 103.5V114C31.8 114.3 31.5 114.6 31.2 114.6H22.6C22.3 114.6 22 114.3 22 114V103C22 101.2 21.6 99.8 20.7 98.7C19.8 97.6 18.5 97.1 16.6 97.1C14.6 97.1 12.9 97.7 11.7 98.9C10.5 100.1 9.9 101.6 9.9 103.5V114C9.8 114.3 9.5 114.6 9.2 114.6Z" fill="#eee"/>
<path d="M78.8 112.3C78.6 111.9 78.2 111.8 77.8 112C75.6 114 72.2 115 67.6 115H67C63.3 115 60.5 114.3 58.7 112.8C56.9 111.3 56 109.5 56 107.3V107C56 104.8 56.8 103.2 58.3 102.1C59.8 101 62.4 100.3 65.9 100L76.7 99C77.7 98.9 78.2 98.5 78.2 97.8C78.2 97.4 78.1 97.1 77.9 96.9C77.7 96.7 77.1 96.4 76.1 96.2C75.1 96 73.8 95.9 72 95.9H71.8C70.4 95.9 69.3 96 68.4 96.2C67.5 96.4 66.9 96.6 66.5 97C66.1 97.3 65.9 97.6 65.8 97.8C65.8 97.9 65.7 98 65.7 98.1C65.6 98.4 65.4 98.6 65.1 98.6H56.5V98.3C56.5 97.5 56.6 96.9 56.7 96.3C56.8 95.7 57.2 95 57.7 94.2C58.3 93.4 59 92.8 59.9 92.2C60.8 91.7 62.2 91.2 64 90.9C65.8 90.5 68 90.4 70.5 90.4H72.9C75.5 90.4 77.8 90.6 79.6 90.9C81.5 91.2 82.9 91.6 83.9 92.1C84.9 92.6 85.7 93.2 86.2 93.9C86.8 94.6 87.1 95.3 87.2 95.9C87.3 96.5 87.4 97.2 87.4 98V107C87.4 107.8 87.8 108.2 88.6 108.2H89.3C89.6 108.2 89.9 108.5 89.9 108.8V114C89.9 114.3 89.6 114.6 89.3 114.6H82C81 114.6 80.2 114.3 79.5 113.8C79.4 113.4 79 112.9 78.8 112.3ZM78.3 104.1C78.3 103.7 78 103.4 77.6 103.5L69 104.8C67.7 105 66.8 105.3 66.3 105.6C65.8 105.9 65.5 106.4 65.5 107C65.5 107.7 65.8 108.4 66.5 108.9C67.2 109.4 68.3 109.7 69.8 109.7C72.3 109.7 74.4 109.1 76 108C77.5 106.9 78.3 105.6 78.3 104.1Z" fill="#eee"/>
<path d="M110 115.2H107.6C105 115.2 102.7 114.9 100.7 114.4C98.7 113.9 97.1 113.2 95.9 112.4C94.7 111.6 93.8 110.6 93 109.5C92.2 108.4 91.7 107.3 91.5 106.3C91.2 105.2 91.1 104.2 91.1 103V102.1C91.1 101 91.2 99.9 91.5 98.8C91.8 97.8 92.3 96.7 93 95.6C93.7 94.5 94.7 93.6 95.9 92.8C97.1 92 98.7 91.4 100.7 90.9C102.7 90.4 105 90.2 107.5 90.2H110C112.3 90.2 114.4 90.4 116.3 90.7C118.2 91.1 119.7 91.5 120.8 92.1C122 92.7 122.9 93.4 123.7 94.1C124.5 94.8 125.1 95.6 125.5 96.4C125.9 97.2 126.1 97.9 126.3 98.6C126.4 99.2 126.5 99.9 126.5 100.5V100.6H116.9C116.6 100.6 116.4 100.4 116.3 100.2C115.5 97.6 112.9 96.4 108.6 96.4H108.5C105.9 96.4 104 96.9 102.8 98C101.6 99.1 101 100.5 101 102.2V102.5C101 104.3 101.6 105.8 102.8 107C104 108.2 105.9 108.8 108.5 108.8H108.6C110.1 108.8 111.4 108.6 112.5 108.3C113.6 108 114.4 107.5 114.9 107C115.4 106.4 115.8 106 116 105.6C116.1 105.4 116.2 105.2 116.3 104.9C116.4 104.6 116.6 104.5 116.9 104.5H126.5V104.6C126.5 105.4 126.4 106.2 126.2 107C126 107.8 125.6 108.7 124.9 109.7C124.2 110.7 123.3 111.6 122.2 112.4C121.1 113.1 119.4 113.8 117.3 114.3C115.4 115 112.9 115.2 110 115.2Z" fill="#eee"/>
<path d="M150.6 112.3C150.4 111.9 150 111.8 149.6 112C147.4 114 144 115 139.4 115H138.8C135.1 115 132.3 114.3 130.5 112.8C128.7 111.3 127.8 109.5 127.8 107.3V107C127.8 104.8 128.6 103.2 130.1 102.1C131.6 101 134.2 100.3 137.7 100L148.5 99C149.5 98.9 150 98.5 150 97.8C150 97.4 149.9 97.1 149.7 96.9C149.5 96.7 148.9 96.4 147.9 96.2C146.9 96 145.6 95.9 143.8 95.9H143.6C142.2 95.9 141.1 96 140.2 96.2C139.3 96.4 138.7 96.6 138.3 97C137.9 97.3 137.7 97.6 137.6 97.8C137.6 97.9 137.5 98 137.5 98.1C137.4 98.4 137.2 98.6 136.9 98.6H128.3V98.3C128.3 97.5 128.4 96.9 128.5 96.3C128.6 95.7 129 95 129.5 94.2C130.1 93.4 130.8 92.8 131.7 92.2C132.6 91.7 134 91.2 135.8 90.9C137.6 90.5 139.8 90.4 142.3 90.4H144.7C147.3 90.4 149.6 90.6 151.4 90.9C153.3 91.2 154.7 91.6 155.7 92.1C156.7 92.6 157.5 93.2 158 93.9C158.6 94.6 158.9 95.3 159 95.9C159.1 96.5 159.2 97.2 159.2 98V107C159.2 107.8 159.6 108.2 160.4 108.2H161.1C161.4 108.2 161.7 108.5 161.7 108.8V114C161.7 114.3 161.4 114.6 161.1 114.6H153.8C152.8 114.6 152 114.3 151.3 113.8C151.2 113.4 150.8 112.9 150.6 112.3ZM150.1 104.1C150.1 103.7 149.8 103.4 149.4 103.5L140.8 104.8C139.5 105 138.6 105.3 138.1 105.6C137.6 105.9 137.3 106.4 137.3 107C137.3 107.7 137.6 108.4 138.3 108.9C139 109.4 140.1 109.7 141.6 109.7C144.1 109.7 146.2 109.1 147.8 108C149.3 106.9 150.1 105.6 150.1 104.1Z" fill="#eee"/>
<path d="M173.8 102.4V114C173.8 114.3 173.5 114.6 173.2 114.6H164.7C164.4 114.6 164.1 114.3 164.1 114V91.6C164.1 91.3 164.4 91 164.7 91H173.2C173.5 91 173.8 91.3 173.8 91.6V93.4C173.8 94 174.5 94.2 174.9 93.8C175.3 93.4 175.9 92.9 176.7 92.3C177.5 91.7 178.4 91.3 179.6 90.9C180.8 90.5 182 90.4 183.4 90.4H183.9C187.2 90.4 189.6 91.3 191.2 93.2C192.8 95.1 193.5 97.7 193.5 100.9V101.6C193.5 101.9 193.2 102.2 192.9 102.2H184.7C184.4 102.2 184.1 102 184.1 101.6C184 100.2 183.6 99 182.9 98.1C182.1 97 180.8 96.5 179.1 96.5C177.5 96.5 176.3 97 175.4 98.1C174.3 99.4 173.8 100.8 173.8 102.4Z" fill="#eee"/>
<path d="M211.8 115.2C209.2 115.2 206.8 115 204.8 114.5C202.8 114 201.1 113.4 199.9 112.6C198.7 111.8 197.7 110.8 196.9 109.8C196.1 108.7 195.6 107.6 195.3 106.6C195 105.5 194.9 104.4 194.9 103.2V102.3C194.9 101.1 195 100 195.3 99C195.6 97.9 196.1 96.9 196.9 95.8C197.7 94.7 198.7 93.8 199.9 93C201.1 92.2 202.8 91.6 204.8 91.1C206.8 90.6 209.2 90.4 211.8 90.4H214.9C226.1 90.4 231.8 94.4 231.8 102.3V103.1C231.8 104.3 231.7 105.5 231.5 106.5C231.3 107.5 230.8 108.6 230.1 109.7C229.4 110.8 228.4 111.8 227.2 112.6C226 113.4 224.4 114 222.3 114.5C220.2 115 217.8 115.3 215 115.3H211.8V115.2ZM206.8 107.1C208.1 108.3 210.3 108.9 213.3 108.9C216.3 108.9 218.5 108.3 219.8 107.1C221.1 105.9 221.8 104.5 221.8 102.8V102.6C221.8 100.9 221.1 99.5 219.8 98.4C218.5 97.3 216.3 96.7 213.3 96.7C210.2 96.7 208 97.3 206.7 98.4C205.4 99.5 204.8 100.9 204.8 102.7V102.9C204.9 104.4 205.5 105.9 206.8 107.1Z" fill="#eee"/>
<path d="M234.5 114V91.6C234.5 91.3 234.8 91 235.1 91H243.6C243.9 91 244.2 91.3 244.2 91.6V93.7C244.2 94.2 244.8 94.5 245.2 94.2C248.2 91.8 251.7 90.5 255.9 90.5H256.2C260 90.5 262.9 91.4 264.8 93.2C266.7 95 267.7 97.2 267.7 99.7V114C267.7 114.3 267.4 114.6 267.1 114.6H258.5C258.2 114.6 257.9 114.3 257.9 114V103C257.9 101.2 257.4 99.7 256.3 98.7C255.2 97.7 253.7 97.1 251.6 97.1C249.4 97.1 247.7 97.7 246.3 98.9C245 100.1 244.3 101.6 244.3 103.5V114C244.3 114.3 244 114.6 243.7 114.6H235.2C234.8 114.6 234.5 114.3 234.5 114Z" fill="#eee"/>
</svg>
